# xmcd
# 
# Track frame offsets:
#     150
#     13032
#     27086
#     39425
#     50881
#     62329
#     74762
#     86516
#     98402
#     109904
#     122286
#     132125
#     140699
#     153552
#     165041
#     177632
#     198715
# 
# Disc length: 2801
# 
# Revision: 2
# Processed by: cddbd v1.5.2PL0 Copyright (c) Steve Scherf et al.
# Submitted via: fre:ac v1.0.31
# 
DISCID=e40aef11
DTITLE=50's - The Best Of Classic Country "50s"
DYEAR=0
DGENRE=Country
TTITLE0=Hank Snow - I'm Moving On
TTITLE1=Lefty Frizzell - Always Late (With Your Kisses)
TTITLE2=Hank Thompson and His Brazos Valley Boys - The Wild Side of Life
TTITLE3=Kitty Wells - It Wasn't God Who Made Honey Tonk Angels
TTITLE4=Webb Pierce - Slowly
TTITLE5=Hank Williams - Cold, Cold Heart
TTITLE6=Ray Price - Crazy Arms
TTITLE7=Tennesse Ernie Ford - Sixteen Tons
TTITLE8=Eddy Arnold - The Cattle Call
TTITLE9=Johnny Cash and The Tennessee Two - I Walk The Line
TTITLE10=Elvis Presley - Heartbreak Hotel
TTITLE11=Jerry Lee Lewis - Great Balls of Fire
TTITLE12=Jim Reeves - Four Walls
TTITLE13=Don Gibson - Oh Lonesome Me
TTITLE14=George Jones - White Lightning
TTITLE15=Marty Robbins - EL Paso
TTITLE16=Johnny Horton - The Battle of New Orleans
EXTD=
EXTT0=
EXTT1=
EXTT2=
EXTT3=
EXTT4=
EXTT5=
EXTT6=
EXTT7=
EXTT8=
EXTT9=
EXTT10=
EXTT11=
EXTT12=
EXTT13=
EXTT14=
EXTT15=
EXTT16=
PLAYORDER=
